<svg width="605" height="172" viewBox="0 0 605 172" fill="none" xmlns="http://www.w3.org/2000/svg">
<g clip-path="url(#clip0_1309_6570)">
<path d="M137.474 56.6484V59.6024C137.447 58.6178 137.447 57.6331 137.447 56.6484H137.474Z" fill="#1C406B"/>
<path d="M184.253 96.6098C184.253 94.2263 182.878 92.6679 179.945 92.6679H175.086V100.643H179.945C182.878 100.643 184.253 99.1307 184.253 96.6098ZM167.248 86.1592H180.403C188.287 86.1592 192.229 90.6969 192.229 96.2889C192.229 100.322 190.028 104.127 185.078 105.594L192.504 118.336H183.657L176.965 106.189H175.086V118.336H167.248V86.1592ZM197.149 118.336V86.1592H204.987V118.336H197.149ZM222.722 86.1592C232.989 86.1592 239.589 92.6679 239.589 102.248C239.589 111.781 232.989 118.336 222.722 118.336H210.667V86.1592H222.722ZM218.505 111.552H222.217C228.13 111.552 231.614 108.16 231.614 102.248C231.614 96.3347 228.13 92.8512 222.217 92.8512H218.505V111.552ZM243.969 118.336V86.1592H253.228L262.258 108.435L271.196 86.1592H280.409V118.336H272.571V99.0391L265.375 118.336H259.049L251.807 98.9932V118.336H243.969ZM308.001 118.336L306.075 112.652H294.066L292.141 118.336H283.937L295.579 86.1592H304.655L316.297 118.336H308.001ZM304.059 106.602L300.071 94.8222L296.129 106.602H304.059ZM339.55 118.336L332.995 108.481L327.22 118.336H318.328L328.641 101.973L318.098 86.1592H327.22L333.683 95.8764L339.366 86.1592H348.258L338.037 102.385L348.671 118.336H339.55ZM375.982 108.756C375.982 114.165 371.765 118.657 364.248 118.657C357.327 118.657 351.918 115.219 351.689 108.71H360.031C360.26 111.186 361.819 112.377 364.019 112.377C366.311 112.377 367.777 111.231 367.777 109.352C367.777 103.393 351.689 106.602 351.781 95.1889C351.781 89.0927 356.777 85.7008 363.515 85.7008C370.527 85.7008 375.248 89.1844 375.569 95.3264H367.09C366.952 93.2637 365.485 92.0262 363.377 91.9803C361.498 91.9345 360.077 92.8971 360.077 94.9138C360.077 100.506 375.982 97.9848 375.982 108.756ZM379.064 92.4387V86.1592H403.952V92.4387H395.427V118.336H387.589V92.4387H379.064ZM427.596 86.1592V92.4387H415.724V98.9474H426.22V104.998H415.724V112.056H427.596V118.336H407.886V86.1592H427.596ZM452.393 86.1592V92.4387H440.522V98.9474H451.018V104.998H440.522V112.056H452.393V118.336H432.684V86.1592H452.393ZM457.482 86.1592H465.32V112.286H475.587V118.336H457.482V86.1592Z" fill="#1C406B"/>
<path d="M359.196 126.449H361.624V141.273H359.196L351.891 130.219V141.273H349.463V126.449H351.891L359.196 137.482V126.449ZM364.813 141.273V126.471H367.241V141.273H364.813ZM377.181 126.279C380.269 126.279 382.931 127.834 384.06 130.73H381.142C380.354 129.24 378.948 128.494 377.181 128.494C374.241 128.494 372.111 130.581 372.111 133.84C372.111 137.099 374.241 139.207 377.181 139.207C379.864 139.207 381.547 137.589 381.909 135.097H376.35V133.159H384.507V135.054C384.06 138.483 381.164 141.401 377.181 141.401C373.006 141.401 369.619 138.292 369.619 133.84C369.619 129.41 373.006 126.279 377.181 126.279ZM395.081 126.449V128.43H389.33V132.775H394.442V134.756H389.33V139.293H395.081V141.273H386.902V126.449H395.081ZM405.931 130.901C405.931 129.41 405.079 128.451 403.184 128.451H400.5V133.414H403.184C405.079 133.414 405.931 132.37 405.931 130.901ZM398.072 126.471H403.184C406.698 126.471 408.423 128.494 408.423 130.901C408.423 132.647 407.486 134.522 404.994 135.139L408.657 141.273H405.761L402.353 135.352H400.5V141.273H398.072V126.471ZM411.529 141.273V126.471H413.957V141.273H411.529ZM427.134 141.273L426.069 138.249H419.871L418.806 141.273H416.272L421.575 126.449H424.387L429.69 141.273H427.134ZM425.388 136.268L422.981 129.389L420.553 136.268H425.388ZM437.529 126.471H439.957V139.314H444.962V141.273H437.529V126.471ZM446.226 128.451V126.471H456.556V128.451H452.616V141.273H450.188V128.451H446.226ZM463.85 126.471C468.6 126.471 471.709 129.346 471.709 133.925C471.709 138.483 468.6 141.273 463.85 141.273H459.015V126.471H463.85ZM461.443 139.293H463.85C467.343 139.293 469.217 137.291 469.217 133.925C469.217 130.539 467.343 128.451 463.85 128.451H461.443V139.293Z" fill="#1C406B"/>
<path d="M341.77 69.025C283.87 69.025 225.97 69.025 168.069 68.9718C166.828 68.9718 164.867 70.0806 164.477 67.4371C164.033 64.4122 165.559 64.0928 168.069 64.0928C193.609 64.1638 219.148 64.1372 244.678 64.1372C335.161 64.1194 425.644 64.1017 516.127 64.0573C517.99 64.0573 519.613 63.871 519.525 66.6299C519.463 68.4662 519.028 69.1403 517.112 69.1049C510.618 68.9984 504.125 69.0428 497.631 69.0428C445.675 69.0428 393.718 69.0428 341.761 69.0428V69.0161L341.77 69.025Z" fill="#F3B922"/>
<path d="M252.256 131.514C280.642 131.514 309.029 131.514 337.416 131.532C338.8 131.532 340.521 130.849 340.636 133.501C340.751 136.109 339.492 136.26 337.46 136.251C319.639 136.207 301.808 136.251 283.987 136.251C245.256 136.251 206.526 136.26 167.796 136.233C166.377 136.233 164.354 137.129 164.336 134.202C164.319 132.073 164.895 131.381 167.095 131.399C178.76 131.505 190.417 131.452 202.082 131.461C218.804 131.461 235.534 131.461 252.256 131.461V131.514Z" fill="#F3B922"/>
<path d="M56.908 133.885C53.0314 124.748 49.1193 115.62 45.3048 106.456C44.6484 104.886 44.3379 104.798 42.9008 105.88C39.9202 108.124 38.9622 110.768 39.042 114.511C39.2993 126.833 39.0952 139.163 39.1839 151.485C39.1928 153.295 38.5896 153.614 36.9928 153.552C33.8259 153.428 30.6502 153.392 27.4833 153.516C25.8599 153.578 25.4518 153.126 25.4607 151.494C25.4873 127.631 25.443 103.777 25.4163 79.9147C25.4075 69.2431 25.4163 58.5803 25.3809 47.9086C25.3809 46.7465 25.6026 45.9038 26.5607 45.1232C40.9581 33.2539 55.3289 21.3315 69.7086 9.43562C70.2941 8.94772 70.9239 8.52192 71.7046 7.94531C71.7046 13.259 71.7046 18.271 71.7046 23.2831C71.6957 41.1579 71.6602 59.0327 71.7046 76.9075C71.7046 78.4067 71.2876 79.4446 70.1965 80.4647C65.6014 84.7227 61.1039 89.0961 56.5176 93.3719C55.5507 94.2678 55.2757 95.0041 55.8346 96.317C59.4273 104.718 62.9135 113.163 66.4264 121.599C63.4901 125.875 60.3055 129.955 56.908 133.876V133.885ZM57.662 37.024C57.4402 37.166 57.2007 37.2902 56.9967 37.4676C51.5766 41.9829 46.1919 46.5425 40.7275 51.0045C39.5654 51.9537 39.0864 52.9118 39.0952 54.4464C39.1751 66.1826 39.1573 77.9188 39.1928 89.6638C39.1928 90.0364 38.9356 90.542 39.6541 90.8348C45.4734 85.3526 51.3282 79.8172 57.2273 74.3261C58.0346 73.5721 58.0346 72.7205 58.0346 71.7801C58.0168 60.7625 58.0168 49.7449 57.9902 38.7273C57.9902 38.195 58.212 37.5829 57.662 37.0329V37.024Z" fill="#1C406B"/>
<path d="M87.0527 172.141C64.4941 172.141 41.9354 172.114 19.3679 172.185C17.4784 172.185 16.9018 171.751 17.0083 169.826C17.1857 166.738 17.1502 163.625 17.0083 160.529C16.9284 158.879 17.4429 158.506 19.0397 158.515C32.3016 158.586 45.5636 158.542 58.8256 158.595C60.236 158.595 61.1852 158.231 62.0812 157.078C69.0093 148.225 76.0528 139.461 82.9543 130.59C84.1076 129.099 84.5688 129.454 85.5269 130.678C92.393 139.398 99.3477 148.039 106.196 156.777C107.225 158.089 108.263 158.639 109.957 158.631C124.878 158.568 139.799 158.631 154.72 158.56C156.529 158.551 157.053 158.994 156.955 160.804C156.787 163.971 156.787 167.147 156.893 170.313C156.946 171.884 156.396 172.185 154.933 172.185C137.563 172.114 120.194 172.105 102.816 172.088C97.5558 172.088 92.2954 172.088 87.0349 172.088V172.141H87.0527Z" fill="#1C406B"/>
<path d="M56.908 133.883C60.3056 129.962 63.4902 125.881 66.4265 121.605C69.1499 118.163 71.82 114.677 74.6232 111.297C75.4659 110.277 75.2974 109.647 74.5788 108.725C71.1724 104.351 67.8902 99.8806 64.4217 95.5516C63.3749 94.2387 63.6677 93.5645 64.7588 92.5887C67.1717 90.4242 69.5579 88.2242 71.8022 85.8912C72.8579 84.7912 73.328 85.1372 74.0643 86.1218C76.9474 89.9895 79.9368 93.7774 82.7578 97.6894C83.7868 99.1088 84.2747 98.8249 85.1795 97.6185C88.9408 92.6064 92.8174 87.6831 96.5697 82.671C97.4834 81.4469 98.1221 81.3315 99.231 82.4138C101.546 84.6847 103.915 86.9025 106.354 89.0226C107.419 89.954 107.392 90.6194 106.567 91.675C102.274 97.1838 98.0867 102.781 93.7577 108.255C92.6932 109.594 92.8085 110.375 93.8552 111.697C101.635 121.517 109.308 131.425 117.017 141.299C117.283 141.636 117.603 141.92 117.904 142.23C120.734 145.965 123.555 149.708 126.385 153.452C121.222 153.993 116.041 153.514 110.87 153.647C109.841 153.674 109.441 152.769 108.918 152.112C101.369 142.576 93.8286 133.031 86.2795 123.486C86.0134 123.149 85.7029 122.83 85.4811 122.466C84.5586 120.984 83.8489 121.171 82.8021 122.492C75.1643 132.242 67.4466 141.911 59.8088 151.66C58.7354 153.026 57.6177 153.665 55.8347 153.62C51.3194 153.496 46.8041 153.576 41.7832 153.576C46.9815 146.79 51.9404 140.332 56.8903 133.874L56.908 133.883Z" fill="#F3B922"/>
<path d="M117.816 45.4734C109.468 39.0775 101.476 32.2381 93.3234 25.5938C92.5605 24.9728 91.7798 24.3607 90.9726 23.722C90.396 24.4317 90.6444 25.097 90.6444 25.6914C90.6089 43.7081 90.5734 61.716 90.6177 79.7327C90.6177 81.7109 90.2807 83.3343 88.8791 84.8069C87.442 86.3149 86.2089 88.0181 84.9315 89.6681C84.3017 90.4842 83.867 90.6351 83.1573 89.6947C81.463 87.4504 79.6977 85.2682 77.9058 83.1037C77.3114 82.3851 77.134 81.6222 77.1429 80.7174C77.1606 55.4265 77.1606 30.1357 77.1784 4.8448C77.1784 2.14805 79.7598 1.63354 81.3033 0.347264C82.3501 -0.530953 83.184 0.968225 83.9469 1.58919C94.8492 10.4423 105.716 19.3398 116.592 28.2373C117.088 28.6454 117.523 29.1244 117.993 29.5679C117.931 34.8638 117.869 40.1686 117.816 45.4645V45.4734Z" fill="#F3B922"/>
<path d="M156.858 152.181C156.876 153.157 156.645 153.61 155.554 153.61C145.84 153.521 136.109 153.503 126.404 153.45C123.566 149.698 120.736 145.972 117.915 142.237C117.95 141.439 118.039 140.649 118.039 139.869C118.039 121.719 118.039 103.551 118.004 85.4015L117.915 54.7526C117.897 51.6655 117.862 48.5785 117.826 45.4737C117.879 40.1689 117.95 34.873 118.004 29.5859C122.661 32.7085 126.653 36.6826 131.115 40.0447C131.727 40.5149 131.691 41.1447 131.691 41.7923C131.691 45.1721 131.674 48.543 131.709 51.9228C131.709 52.5704 131.709 53.2091 131.727 53.8567V85.4015H131.691C131.709 102.806 131.709 120.22 131.674 137.624C131.674 139.416 131.966 140.082 133.989 140.028C140.979 139.869 147.969 139.993 154.951 139.904C156.468 139.886 156.938 140.303 156.885 141.82C156.778 145.271 156.831 148.722 156.867 152.181H156.858Z" fill="#1C406B"/>
</g>
<defs>
<clipPath id="clip0_1309_6570">
<rect width="605" height="172" fill="white"/>
</clipPath>
</defs>
</svg>
